<?xml version="1.0" standalone="no"?>
<!DOCTYPE svg PUBLIC "-//W3C//DTD SVG 20010904//EN"
 "http://www.w3.org/TR/2001/REC-SVG-20010904/DTD/svg10.dtd">
<svg version="1.0" xmlns="http://www.w3.org/2000/svg"
 width="276.000000pt" height="276.000000pt" viewBox="0 0 276.000000 276.000000"
 preserveAspectRatio="xMidYMid meet">

<g transform="translate(0.000000,276.000000) scale(0.100000,-0.100000)"
fill="#000000" stroke="none">
<path d="M1770 2750 c0 -5 5 -10 11 -10 5 0 7 5 4 10 -3 6 -8 10 -11 10 -2 0
-4 -4 -4 -10z"/>
<path d="M2250 2745 c0 -8 5 -15 10 -15 6 0 10 7 10 15 0 8 -4 15 -10 15 -5 0
-10 -7 -10 -15z"/>
<path d="M2282 2732 c-1 -14 -8 -30 -15 -35 -7 -5 -2 -6 13 -2 14 4 32 16 40
26 12 15 18 17 28 7 6 -6 12 -21 12 -31 0 -13 5 -17 15 -13 8 3 15 1 15 -4 0
-6 -5 -10 -11 -10 -5 0 -7 -5 -4 -10 4 -6 10 -8 14 -5 14 8 42 -31 35 -49 -3
-9 -1 -16 6 -16 6 0 9 4 6 9 -3 5 1 15 10 22 14 11 16 10 14 -6 -4 -36 0 -38
21 -11 13 16 18 33 14 46 -4 11 -2 20 4 20 6 0 11 -9 11 -21 0 -13 5 -19 13
-16 7 3 21 -1 32 -9 10 -8 29 -14 41 -14 13 0 26 -4 29 -10 3 -5 1 -10 -6 -10
-16 0 10 -30 36 -40 16 -7 11 -9 -20 -10 -34 -1 -37 -3 -17 -10 12 -5 22 -11
22 -13 0 -6 -70 0 -77 7 -10 10 -43 7 -43 -4 0 -16 -33 -50 -50 -51 -12 0 -12
-2 2 -7 14 -6 13 -9 -8 -25 -21 -15 -24 -16 -24 -2 0 18 -17 20 -22 3 -3 -9
-9 -8 -22 5 -17 16 -16 17 3 17 23 0 29 16 9 23 -14 4 -50 -15 -85 -46 -13
-11 -27 -16 -35 -11 -7 4 -10 4 -6 -1 9 -9 -17 -30 -58 -46 l-29 -10 25 28
c14 15 28 29 33 31 4 2 7 9 7 15 0 6 -14 -2 -32 -19 -18 -16 -27 -22 -20 -12
7 9 9 18 5 21 -5 3 -13 -6 -20 -19 -7 -16 -8 -22 -1 -17 7 3 8 1 4 -5 -4 -7
-13 -12 -20 -12 -8 0 -19 -7 -26 -15 -7 -8 -16 -12 -21 -10 -4 3 -13 -4 -19
-15 -6 -11 -15 -20 -21 -20 -10 0 27 59 46 72 6 4 6 8 1 8 -5 0 -2 8 5 18 13
16 13 16 -7 -1 -11 -9 -24 -14 -28 -10 -4 4 -4 1 -1 -8 8 -22 -17 -51 -35 -39
-12 7 -12 13 -4 27 6 10 8 27 3 38 -7 18 -8 18 -8 2 -1 -10 -5 -16 -10 -13 -5
4 -16 -13 -25 -36 l-16 -43 5 40 c4 26 3 35 -3 26 -8 -11 -10 -11 -15 0 -3 8
-6 -4 -6 -27 -1 -22 -8 -49 -16 -60 -13 -17 -14 -14 -10 36 2 30 1 48 -1 40
-16 -46 -16 -46 -25 -25 -6 14 -7 4 -4 -30 2 -27 2 -41 -1 -30 -12 42 -26 41
-22 -2 2 -24 1 -43 -2 -43 -3 0 -20 9 -39 21 -37 22 -52 19 -27 -6 25 -26 19
-41 -7 -17 -13 12 -29 22 -36 22 -7 0 -9 5 -6 10 3 6 1 10 -4 10 -15 0 -14
-27 2 -33 6 -2 9 -8 4 -13 -4 -4 -15 0 -24 9 -15 15 -17 15 -29 -1 -11 -15
-13 -14 -19 11 -4 15 -11 27 -16 27 -5 0 -8 -3 -8 -7 5 -29 -3 -33 -43 -27
-24 4 -46 12 -50 18 -5 7 -8 4 -8 -6 0 -21 -20 -24 -38 -6 -10 10 -15 10 -22
-2 -8 -13 -10 -13 -10 2 0 9 8 19 18 21 10 3 6 5 -11 6 -25 1 -27 -2 -21 -21
6 -21 6 -21 -11 -5 -16 17 -18 16 -43 -10 -24 -26 -25 -26 -20 -5 8 30 -10 28
-22 -3 -5 -14 -14 -25 -19 -25 -5 0 -9 -9 -8 -20 1 -15 6 -18 27 -13 24 5 24
5 5 -10 -11 -8 -24 -12 -30 -9 -16 10 -85 11 -91 1 -3 -5 -11 -9 -17 -9 -7 0
-6 4 3 10 13 8 12 10 -2 10 -10 0 -18 5 -18 11 0 5 3 8 8 6 4 -2 21 2 37 10
l30 13 -32 -6 c-26 -4 -33 -2 -33 11 0 12 -6 15 -22 10 -51 -14 -77 -28 -83
-42 -7 -20 -3 -23 26 -27 13 -2 35 -7 49 -12 24 -8 24 -9 -10 -14 -19 -4 -43
-2 -52 2 -13 6 -18 5 -18 -6 0 -8 -5 -18 -10 -21 -7 -4 -9 2 -5 17 6 21 1 27
-37 43 -31 13 -38 19 -25 22 25 6 15 29 -12 25 -19 -2 -21 1 -15 20 7 23 6 23
-15 4 -11 -11 -23 -17 -25 -15 -8 10 25 69 39 69 8 0 15 3 15 8 0 11 -40 33
-50 27 -5 -3 -11 -1 -15 5 -9 14 -25 2 -24 -18 0 -11 3 -12 6 -4 2 6 8 12 13
12 12 0 19 -25 10 -40 -6 -9 -12 -8 -28 8 -13 13 -17 24 -11 33 13 22 11 37
-8 48 -15 7 -18 5 -19 -15 -1 -13 2 -21 7 -18 17 10 9 -13 -11 -31 -11 -10
-20 -13 -20 -7 0 7 5 12 10 12 6 0 10 5 10 10 0 18 -30 11 -31 -7 0 -10 -6 -3
-12 15 -7 18 -19 38 -27 43 -12 9 -12 10 3 5 28 -9 23 47 -7 63 -20 11 -27 10
-45 -5 -21 -18 -30 -41 -11 -29 6 4 7 -1 3 -11 -5 -13 -3 -15 7 -9 9 5 11 4 6
-3 -4 -7 -2 -12 4 -12 7 0 10 -7 6 -15 -3 -8 -1 -15 5 -15 6 0 7 -5 4 -10 -9
-15 -27 -1 -21 16 3 7 0 16 -6 20 -5 4 -21 30 -33 58 l-24 51 6 -55 6 -55 -22
24 c-26 29 -26 35 -3 26 14 -5 15 -4 3 7 -11 11 -15 10 -23 -3 -9 -13 -15 -12
-42 13 -17 16 -32 24 -34 19 -4 -11 -42 -2 -42 11 0 5 -7 2 -16 -6 -8 -9 -20
-16 -27 -16 -6 0 -2 -7 9 -15 10 -8 15 -14 9 -14 -5 0 -18 6 -28 13 -18 14
-17 15 3 21 39 12 7 24 -72 26 -50 2 -79 8 -82 15 -3 7 -2 15 2 17 4 2 2 2 -5
1 -6 -2 -14 0 -16 4 -2 4 -2 1 -1 -5 2 -9 -11 -13 -41 -13 -25 0 -45 4 -45 8
0 5 14 6 31 4 22 -3 30 -1 25 7 -4 6 -23 11 -43 11 -27 0 -34 -3 -29 -15 4
-12 0 -14 -19 -9 -14 3 -31 2 -38 -4 -8 -7 -20 -6 -37 3 -24 14 -24 14 -3 15
12 0 24 -6 26 -12 3 -8 6 -6 6 5 1 12 -7 17 -29 17 -22 0 -30 5 -29 18 0 10 3
12 6 5 2 -7 9 -13 14 -13 4 0 5 8 2 17 -5 12 -2 15 10 10 9 -3 17 -3 17 2 0 5
-17 12 -37 16 -36 8 -37 8 -13 16 18 6 13 7 -19 4 -35 -5 -47 -2 -60 14 -11
13 -25 18 -39 15 l-21 -6 21 -39 c11 -21 24 -36 29 -33 5 3 9 0 9 -5 0 -6 -7
-11 -15 -11 -8 0 -15 5 -15 10 0 6 -12 8 -27 4 l-28 -6 23 19 23 19 -26 2 -26
2 3 -147 c3 -135 5 -148 22 -151 10 -2 16 0 13 5 -6 10 12 12 178 17 l130 4
-121 -8 c-66 -4 -131 -11 -145 -16 -31 -10 -35 -11 -58 -13 -19 -1 -20 -11
-20 -222 l0 -221 27 6 c138 30 307 30 319 0 3 -8 15 -14 27 -15 14 -1 9 -4
-14 -11 -19 -5 -39 -17 -44 -25 -7 -13 -10 -13 -17 -2 -6 9 -9 10 -9 2 0 -7
-9 -10 -23 -7 -38 9 -77 10 -77 4 0 -7 -19 -6 -127 6 l-63 7 0 -182 c0 -220
-3 -214 106 -213 44 0 72 -3 69 -9 -4 -5 -2 -9 4 -9 5 0 13 5 17 12 5 7 11 5
21 -7 13 -18 13 -18 13 0 0 14 3 16 11 8 15 -15 -19 -73 -38 -66 -7 3 -13 1
-13 -5 0 -14 20 -20 52 -16 20 2 25 -1 21 -12 -6 -17 -15 -18 -31 -2 -9 9 -12
8 -12 -5 0 -9 7 -17 15 -17 20 0 35 -40 24 -62 -5 -9 -6 -25 -3 -35 5 -17 5
-17 -9 -1 -8 10 -18 14 -22 10 -4 -4 -5 0 -3 8 3 8 11 14 17 12 13 -2 15 14 2
22 -5 4 -11 1 -13 -4 -2 -7 -11 -5 -23 5 -14 11 -16 15 -5 14 38 -4 43 3 15
18 -17 9 -25 18 -17 20 17 6 15 20 -3 20 -8 0 -15 -7 -15 -15 0 -9 -6 -12 -16
-8 -8 3 -12 2 -9 -4 3 -6 -1 -10 -9 -10 -9 0 -16 5 -16 10 0 6 -7 10 -16 10
-12 0 -15 -6 -11 -21 4 -16 3 -18 -9 -8 -10 8 -14 8 -14 0 0 -6 -9 -11 -20
-11 -12 0 -20 -7 -20 -16 0 -13 -3 -14 -14 -5 -22 19 -26 -8 -26 -189 l0 -168
51 -17 c28 -10 67 -19 87 -21 21 -1 63 -8 94 -14 94 -17 189 -8 315 31 18 6
40 12 50 13 28 6 113 49 113 58 0 4 8 4 17 1 12 -5 15 -2 10 10 -4 11 -2 14 9
10 22 -8 16 14 -8 32 -13 8 -21 19 -19 23 17 35 19 52 6 52 -8 0 -15 7 -15 15
0 8 -7 15 -15 15 -8 0 -15 5 -15 11 0 6 7 8 15 5 8 -3 22 -9 30 -12 11 -5 13
-2 9 10 -4 10 1 25 11 36 11 12 13 20 7 20 -7 0 -12 7 -12 15 0 18 5 18 31 5
15 -8 19 -7 19 5 0 8 -4 15 -10 15 -6 0 -6 9 -1 23 5 14 5 31 -1 43 -9 17 -8
18 5 2 12 -15 16 -16 33 -3 19 13 19 14 0 21 -16 6 -13 9 15 18 29 9 35 16 37
45 3 32 2 33 -13 17 -10 -9 -20 -14 -23 -11 -4 3 -2 9 4 13 6 4 13 15 17 25 9
23 27 13 28 -16 1 -15 4 -12 11 13 8 30 11 32 20 16 9 -17 11 -17 29 0 23 21
23 17 -1 -76 -33 -130 -47 -173 -77 -240 -16 -36 -28 -71 -26 -77 7 -19 -7
-16 -24 5 -8 9 -12 11 -8 4 6 -12 -5 -16 -37 -13 -9 1 -19 -3 -23 -10 -5 -8
-1 -9 13 -5 17 6 20 3 15 -16 -4 -13 -2 -20 3 -15 5 5 9 14 9 20 0 7 8 13 17
15 30 6 20 -11 -30 -51 -101 -80 -244 -139 -384 -157 -89 -12 -230 6 -320 40
-29 11 -56 20 -60 20 -5 0 -8 -89 -8 -197 0 -181 1 -195 16 -177 13 16 15 16
10 2 -4 -15 0 -17 37 -12 23 3 62 0 87 -6 79 -20 131 -18 244 6 61 13 116 26
121 28 31 10 51 21 57 30 12 18 19 1 21 -52 1 -27 5 -45 9 -39 4 6 10 -2 14
-19 12 -53 46 -101 85 -124 32 -17 50 -21 97 -17 31 3 65 8 75 12 11 5 17 2
18 -6 0 -8 4 -5 9 6 8 20 9 19 9 -1 1 -12 8 -27 16 -34 14 -11 14 -10 5 16 -6
16 -7 25 -2 19 6 -5 15 -27 20 -47 8 -29 7 -40 -4 -49 -11 -9 -14 -8 -14 5 0
9 -8 16 -17 16 -12 0 -14 -3 -6 -8 6 -4 13 -16 15 -27 1 -11 7 -23 13 -27 5
-4 7 -10 3 -13 -3 -3 -13 1 -22 10 -9 9 -16 13 -16 8 0 -4 -4 -1 -10 7 -5 8
-12 12 -15 8 -5 -5 9 -47 32 -90 2 -5 0 -8 -6 -8 -5 0 -15 16 -22 35 -7 19
-17 35 -22 35 -5 0 -6 -8 -2 -17 21 -52 19 -58 -11 -30 -17 16 -31 22 -33 16
-2 -6 3 -15 10 -20 10 -6 8 -9 -9 -9 -30 0 -52 -22 -53 -52 -1 -17 -2 -19 -6
-5 -3 13 -10 16 -26 11 -22 -6 -22 -6 -2 9 11 9 17 19 13 23 -4 4 -14 2 -21
-4 -8 -7 -17 -8 -22 -4 -4 4 -5 0 -3 -8 3 -8 -1 -22 -9 -31 -12 -15 -8 -16 47
-18 46 -1 60 2 60 13 0 8 -6 16 -12 19 -10 3 -10 7 1 20 15 19 61 23 61 6 0
-6 7 -9 15 -5 8 3 20 -1 27 -7 7 -7 21 -16 32 -20 14 -6 17 -4 12 10 -6 17 -5
17 8 0 14 -19 33 -7 21 13 -3 6 1 10 10 10 15 0 15 1 1 16 -21 20 -20 24 4 24
11 0 20 -7 20 -15 0 -8 6 -15 13 -15 8 0 7 -4 -3 -10 -8 -5 -10 -10 -5 -10 18
1 42 25 38 38 -3 6 -8 10 -12 8 -4 -3 -7 4 -7 14 0 24 22 14 30 -13 5 -18 8
-20 16 -7 7 11 10 12 10 2 0 -8 9 -12 23 -10 16 2 22 10 23 28 1 14 3 30 4 35
4 12 -17 65 -25 65 -3 0 -4 -25 -1 -56 4 -46 3 -54 -8 -44 -16 13 -26 108 -12
113 5 2 10 11 12 21 2 17 2 17 -17 0 -20 -18 -27 -6 -7 14 8 8 8 15 -1 26 -10
12 -7 15 19 21 16 4 42 4 58 1 15 -3 43 -8 62 -10 19 -2 42 -7 50 -10 8 -3 29
-8 45 -11 17 -3 41 -8 55 -11 14 -3 44 -6 68 -7 23 0 42 -4 42 -8 0 -4 7 -10
16 -13 8 -3 13 -2 10 3 -3 5 7 11 24 13 16 2 27 1 24 -4 -3 -4 -2 -8 3 -8 4 0
13 -12 20 -26 10 -21 9 -25 -1 -21 -9 4 -13 -2 -12 -18 0 -13 4 -21 9 -18 4 2
7 -5 7 -17 0 -14 4 -19 13 -14 7 5 7 1 -2 -10 -13 -15 -13 -19 0 -27 21 -13
46 -11 41 4 -1 5 2 5 8 2 6 -4 9 -9 6 -12 -3 -3 4 -14 14 -25 13 -14 26 -19
41 -15 27 7 59 -8 59 -28 0 -23 30 -17 40 8 9 22 9 22 9 1 1 -21 6 -22 93 -23
62 0 95 4 101 12 7 9 10 9 14 0 7 -19 53 -16 53 3 0 8 -5 12 -10 9 -5 -3 -10
1 -10 10 0 9 -5 13 -11 10 -5 -4 -18 0 -27 7 -32 28 -46 33 -39 14 4 -10 1
-24 -8 -32 -12 -13 -17 -12 -35 3 -11 10 -20 24 -20 31 0 11 -3 12 -14 3 -12
-10 -15 -8 -19 11 l-4 23 -2 -22 c0 -13 -6 -23 -12 -23 -6 0 -9 6 -6 14 3 8
-1 20 -9 27 -8 7 -13 18 -10 25 3 7 1 16 -4 19 -6 4 -10 -2 -10 -12 0 -13 -6
-8 -20 15 -11 17 -25 31 -31 30 -6 -2 -14 3 -16 10 -3 9 2 12 13 10 13 -2 18
2 16 14 -4 22 12 22 98 3 142 -33 248 -38 272 -14 26 26 40 105 28 167 -15 83
-18 95 -25 114 -5 13 -2 18 12 18 10 0 23 -4 28 -9 9 -9 64 -28 233 -81 39
-13 72 -27 72 -31 0 -5 9 -9 21 -9 19 0 19 -1 5 -16 -9 -8 -16 -19 -16 -22 0
-11 40 -33 49 -27 5 2 14 -1 20 -9 6 -7 25 -13 42 -14 46 -1 46 -9 0 -14 -21
-2 -37 0 -35 4 3 5 0 8 -5 8 -18 0 -12 -19 9 -30 12 -6 31 -8 43 -4 l22 6 -22
-21 c-23 -22 -48 -20 -57 5 -3 8 -15 14 -26 14 -17 0 -19 4 -14 26 5 20 3 25
-7 22 -8 -3 -13 -11 -11 -18 2 -7 -3 -10 -12 -7 -9 4 -18 2 -21 -4 -4 -5 2
-12 11 -16 10 -3 26 -15 36 -25 19 -19 19 -20 -6 -43 -28 -26 -35 -48 -12 -39
20 8 63 -16 46 -26 -9 -5 -9 -9 -1 -14 14 -9 15 -36 1 -36 -5 0 -10 7 -10 16
0 12 -7 14 -32 9 -31 -7 -41 -15 -52 -40 -3 -5 -11 -2 -19 8 -8 9 -18 17 -22
17 -4 0 -2 -6 4 -13 6 -8 8 -17 4 -20 -3 -4 -2 -7 4 -7 6 0 9 -9 6 -20 -5 -19
0 -20 166 -20 l171 0 0 390 c0 215 -1 390 -2 390 -2 0 -37 -12 -78 -26 -109
-38 -298 -45 -423 -15 -48 11 -100 27 -115 36 -40 21 -10 18 60 -7 54 -20 83
-23 207 -23 107 0 145 3 149 13 2 6 7 10 12 7 11 -7 60 15 60 27 0 5 5 6 10 3
6 -3 10 -1 10 4 0 16 -16 13 -34 -4 -8 -8 -21 -15 -28 -15 -17 1 30 40 48 40
7 0 38 12 69 27 l55 27 0 218 0 218 -28 0 c-35 0 -112 53 -112 77 0 13 3 14
12 5 7 -7 22 -12 35 -12 13 0 31 -12 45 -30 47 -64 48 -56 48 324 l0 353 -47
-23 c-27 -13 -58 -24 -71 -24 -14 0 -21 -4 -16 -11 4 -8 -1 -9 -16 -4 -14 5
-20 3 -16 -3 3 -6 -7 -16 -24 -24 -16 -7 -30 -16 -30 -20 0 -5 -20 -8 -44 -8
-25 0 -48 -4 -51 -10 -3 -5 -17 -10 -31 -10 -13 0 -24 5 -24 10 0 6 10 10 23
10 17 0 19 2 7 10 -10 6 -24 4 -45 -8 -16 -10 -39 -21 -49 -25 -16 -6 -17 -5
-6 8 15 18 5 34 -11 18 -8 -8 -16 -6 -30 8 -25 25 -24 29 6 29 15 0 36 11 50
26 25 27 115 80 115 68 0 -4 7 -1 15 6 14 12 19 7 16 -13 -1 -5 3 -6 9 -2 5 3
25 2 44 -4 26 -7 39 -6 53 5 10 7 13 14 8 14 -6 0 -16 -5 -23 -12 -22 -22 -13
9 11 37 18 21 33 26 82 29 33 3 67 0 77 -5 17 -9 18 8 18 326 l0 336 -238 -2
-238 -2 -2 -25z m393 -132 c3 -5 -1 -10 -9 -10 -8 0 -18 5 -21 10 -3 6 1 10 9
10 8 0 18 -4 21 -10z m-87 -101 c-7 -5 -9 -11 -5 -15 3 -4 13 -1 21 5 8 7 17
8 20 3 7 -12 -45 -26 -53 -15 -3 4 -12 8 -20 8 -8 0 -16 5 -18 11 -2 6 12 10
32 10 19 0 29 -3 23 -7z m-2185 -6 c-7 -2 -21 -2 -30 0 -10 3 -4 5 12 5 17 0
24 -2 18 -5z m-226 -35 c-9 -6 -8 -8 2 -8 8 0 11 -3 8 -7 -4 -3 -18 6 -33 20
l-26 26 31 -12 c20 -7 26 -14 18 -19z m-72 12 c-3 -5 -18 -10 -33 -9 -24 0
-25 1 -7 9 28 12 47 12 40 0z m319 -39 c-2 -2 -10 2 -18 8 -10 8 -16 9 -21 1
-3 -5 -12 -10 -18 -9 -9 0 -9 2 1 6 6 2 12 11 12 19 0 12 4 12 24 -3 13 -10
22 -20 20 -22z m262 2 c-7 -7 -26 7 -26 19 0 6 6 6 15 -2 9 -7 13 -15 11 -17z
m-616 8 c25 -7 25 -7 3 -13 -13 -3 -23 -2 -23 2 0 5 -8 11 -17 13 -12 3 -13 5
-3 5 8 0 26 -3 40 -7z m577 3 c-3 -3 -12 -4 -19 -1 -8 3 -5 6 6 6 11 1 17 -2
13 -5z m1419 -91 c10 -7 12 -13 5 -18 -6 -3 -11 -1 -11 5 0 7 -6 10 -13 7 -10
-4 -12 3 -8 27 3 22 6 26 9 11 2 -11 10 -25 18 -32z m184 -13 c-8 -5 -19 -10
-25 -10 -5 0 -3 5 5 10 8 5 20 10 25 10 6 0 3 -5 -5 -10z m-220 -45 c-7 -9
-15 -13 -18 -10 -3 2 1 11 8 20 7 9 15 13 18 10 3 -2 -1 -11 -8 -20z m-1030
-30 c-7 -9 -15 -13 -19 -10 -3 3 1 10 9 15 21 14 24 12 10 -5z m-843 -11 c-3
-3 -12 -4 -19 -1 -8 3 -5 6 6 6 11 1 17 -2 13 -5z m-72 -14 c-3 -5 0 -10 7
-11 15 -1 -21 -17 -39 -18 -23 -2 -14 27 10 32 12 2 23 5 25 6 2 0 0 -3 -3 -9z
m1459 -5 c-5 -13 -84 -20 -84 -7 0 16 13 22 51 20 23 -1 36 -5 33 -13z m-1407
-1 c-3 -3 -12 -4 -19 -1 -8 3 -5 6 6 6 11 1 17 -2 13 -5z m2050 -48 c-48 -18
-119 -54 -157 -80 -39 -25 -70 -42 -70 -37 0 20 138 101 224 132 91 32 93 19
3 -15z m518 19 l30 -14 -30 6 c-16 3 -41 10 -55 14 l-25 7 25 1 c14 0 39 -6
55 -14z m-2585 -15 c0 -5 -4 -10 -10 -10 -5 0 -10 5 -10 10 0 6 5 10 10 10 6
0 10 -4 10 -10z m77 -25 c-7 -14 -15 -25 -19 -25 -11 0 -10 7 4 30 18 28 28
25 15 -5z m-157 5 c0 -5 7 -10 15 -10 8 0 15 -4 15 -10 0 -11 -6 -12 -37 -4
-26 7 -32 34 -8 34 8 0 15 -4 15 -10z m214 -18 c2 -4 -5 -9 -17 -9 -17 -2 -19
0 -7 7 18 12 18 12 24 2z m-154 -12 c0 -5 -4 -10 -10 -10 -5 0 -10 5 -10 10 0
6 5 10 10 10 6 0 10 -4 10 -10z m145 -20 c13 -5 14 -9 5 -9 -8 0 -24 4 -35 9
-13 5 -14 9 -5 9 8 0 24 -4 35 -9z m-115 -46 c0 -3 -7 -1 -15 6 -8 7 -15 17
-15 22 0 5 7 3 15 -6 8 -8 15 -18 15 -22z m94 27 c3 -5 -5 -11 -19 -13 -24 -5
-32 2 -18 15 9 10 31 9 37 -2z m53 -7 c-3 -3 -12 -4 -19 -1 -8 3 -5 6 6 6 11
1 17 -2 13 -5z m448 -22 c33 -34 41 -82 12 -82 -23 0 -69 24 -86 44 -11 13
-11 20 3 41 21 32 36 32 71 -3z m-461 -7 c3 -9 0 -15 -9 -15 -8 0 -15 -4 -15
-9 0 -4 11 -6 25 -3 15 2 25 0 25 -7 0 -6 10 -11 23 -12 21 -1 21 -1 -3 -9
-23 -7 -22 -8 10 -9 37 -1 111 -41 76 -41 -12 0 -16 -5 -12 -15 3 -9 0 -15
-10 -15 -11 0 -15 6 -11 20 3 11 1 20 -4 20 -5 0 -10 -4 -10 -10 -1 -5 -2 -15
-3 -22 -1 -14 -154 -20 -162 -6 -3 4 -10 8 -15 8 -6 0 -7 -4 -4 -10 4 -6 -15
-10 -51 -10 -55 0 -56 0 -36 18 20 16 20 19 7 50 -16 37 -18 47 -7 47 4 0 13
4 20 8 8 6 15 0 21 -15 l10 -23 0 23 c1 17 7 22 25 22 14 0 28 -4 31 -10 3 -5
14 -10 23 -9 14 0 14 2 2 6 -31 11 -42 26 -28 34 22 14 75 10 82 -6z m972 0
c-8 -8 -18 -15 -22 -15 -3 0 -1 7 6 15 7 8 17 15 22 15 5 0 3 -7 -6 -15z m44
-15 c0 -5 -5 -10 -11 -10 -5 0 -7 5 -4 10 3 6 8 10 11 10 2 0 4 -4 4 -10z
m-925 -10 c3 -6 -1 -7 -9 -4 -18 7 -21 14 -7 14 6 0 13 -4 16 -10z m895 -10
c0 -5 -5 -10 -11 -10 -5 0 -7 5 -4 10 3 6 8 10 11 10 2 0 4 -4 4 -10z m140
-26 c0 -8 -5 -14 -11 -14 -5 0 -8 -4 -4 -9 3 -5 -6 -11 -20 -13 -14 -2 -25 -7
-25 -13 1 -5 -7 -13 -17 -17 -12 -5 -8 -6 13 -4 20 2 39 -3 55 -16 13 -11 18
-16 10 -12 -9 4 -12 2 -9 -7 3 -10 24 -14 71 -15 37 0 70 -3 74 -7 3 -4 -41
-7 -98 -7 -58 0 -109 -4 -114 -9 -6 -5 -31 -3 -60 5 -67 18 -98 6 -115 -47
-16 -47 -30 -49 -64 -8 -27 32 -35 56 -14 43 20 -13 68 -10 68 4 0 7 7 15 15
18 8 4 12 10 9 15 -3 5 1 9 8 9 7 1 1 8 -14 16 -16 8 -28 21 -28 29 0 18 39
30 53 16 8 -8 6 -11 -8 -11 -15 0 -17 -2 -6 -9 14 -9 49 -4 68 11 7 5 14 5 17
-1 4 -6 14 -8 24 -5 9 3 23 8 31 10 11 4 11 8 -3 23 -18 20 -12 33 12 24 10
-4 13 -2 8 5 -4 7 -1 12 8 12 9 0 16 -6 16 -12 0 -8 5 -6 11 4 11 19 39 13 39
-8z m-122 -9 c0 -14 -4 -28 -9 -31 -5 -3 -9 -1 -9 5 0 7 -8 7 -26 1 -32 -12
-34 -12 -34 0 0 6 6 10 13 10 6 0 23 9 37 20 14 11 26 20 26 20 1 0 2 -11 2
-25z m-48 11 c0 -3 -4 -8 -10 -11 -5 -3 -10 -1 -10 4 0 6 5 11 10 11 6 0 10
-2 10 -4z m-1152 -34 c2 -7 -3 -12 -12 -12 -9 0 -16 7 -16 16 0 17 22 14 28
-4z m1384 -50 c-7 -2 -10 -8 -7 -13 4 -5 -1 -6 -10 -3 -12 5 -13 10 -4 20 6 8
16 11 22 7 8 -5 7 -8 -1 -11z m664 -24 c-2 -17 -10 -23 -32 -25 -16 -1 -22 1
-13 3 11 3 15 12 12 25 -4 14 0 19 16 19 16 0 20 -5 17 -22z m151 -14 c-7 -7
-37 7 -37 17 0 6 9 5 21 -1 11 -7 19 -14 16 -16z m98 -24 c3 -6 -1 -7 -9 -4
-18 7 -21 14 -7 14 6 0 13 -4 16 -10z m92 -62 c29 1 33 -2 33 -23 0 -25 -15
-42 -24 -27 -3 5 -17 7 -31 4 -14 -2 -25 0 -25 6 0 6 -13 7 -35 2 -24 -5 -33
-5 -28 3 4 6 0 8 -10 4 -19 -7 -47 1 -47 13 0 9 111 28 124 22 5 -3 24 -5 43
-4z m108 -8 c3 -6 -1 -7 -9 -4 -9 3 -16 2 -16 -4 0 -6 -9 -8 -20 -5 -11 3 -20
9 -20 14 0 12 57 11 65 -1z m-875 -20 c0 -5 -8 -10 -17 -10 -15 0 -16 2 -3 10
19 12 20 12 20 0z m-676 -89 c15 -65 15 -72 -3 -111 -10 -23 -20 -37 -22 -31
-5 15 -77 14 -109 0 -3 -1 -9 -3 -15 -4 -5 -1 -18 -5 -27 -8 -38 -15 -49 -16
-43 -8 3 5 -1 12 -7 15 -10 3 -9 8 2 18 22 19 50 65 50 82 0 10 6 13 15 10 18
-7 20 7 3 24 -7 7 -8 12 -2 12 6 0 19 -9 29 -20 14 -16 21 -18 27 -8 6 8 7 4
2 -11 l-6 -24 28 22 c22 18 28 29 25 53 -2 25 0 30 13 25 11 -5 16 -1 16 13 0
37 8 20 24 -49z m477 27 c70 -26 82 -42 90 -113 4 -38 13 -73 23 -84 25 -28
19 -32 -16 -11 -93 54 -306 83 -346 47 -11 -10 -37 -21 -58 -24 -22 -3 -47
-10 -56 -15 -24 -12 -23 1 3 29 13 13 25 44 30 75 5 29 17 60 28 72 42 42 214
55 302 24z m-541 -29 c0 -5 -4 -9 -10 -9 -5 0 -10 7 -10 16 0 8 5 12 10 9 6
-3 10 -10 10 -16z m-185 -50 c0 -8 6 -18 13 -22 6 -4 12 -12 12 -17 0 -6 -11
0 -25 12 -26 22 -34 53 -12 46 6 -3 12 -11 12 -19z m-49 -49 c8 0 14 -7 14
-15 0 -8 4 -15 10 -15 5 0 7 -7 4 -15 -5 -11 -9 -11 -19 -2 -7 6 -10 18 -8 25
6 14 -31 12 -44 -3 -5 -4 -2 -5 5 -1 11 6 17 -5 13 -26 0 -5 5 -8 13 -8 8 0
18 -5 22 -12 5 -8 2 -9 -10 -5 -18 7 -60 -15 -51 -26 3 -4 0 -3 -6 2 -14 11
-39 3 -39 -13 0 -6 -15 -18 -33 -27 -17 -9 -32 -21 -32 -27 0 -17 -12 -24 -21
-11 -5 8 -3 10 7 4 8 -5 10 -4 6 0 -12 14 -40 15 -29 2 10 -14 8 -55 -3 -65
-5 -4 -5 1 -2 10 3 10 2 20 -4 24 -6 3 -13 -4 -16 -15 -3 -12 -10 -20 -16 -18
-18 6 -18 22 -1 42 8 11 13 14 9 8 -4 -9 -1 -11 11 -6 11 4 13 8 6 11 -7 2 -9
9 -5 15 4 7 0 8 -12 3 -11 -4 -25 0 -34 8 -15 14 -17 13 -19 -10 -1 -14 2 -23
7 -19 5 3 12 1 16 -5 3 -6 -1 -13 -10 -16 -10 -4 -14 -14 -10 -28 2 -11 -2 -7
-10 9 -12 26 -20 27 -16 3 0 -5 -4 -8 -9 -8 -6 0 -10 -7 -10 -16 0 -12 -3 -14
-13 -6 -8 7 -18 6 -31 -4 -19 -13 -45 -20 -34 -8 4 3 -1 26 -9 51 -16 45 -16
45 -29 22 -7 -13 -14 -22 -14 -19 -4 16 -5 58 -2 55 3 -2 11 3 19 11 19 18 33
10 26 -16 -3 -12 0 -20 7 -20 7 0 10 -8 7 -20 -3 -11 -1 -23 4 -26 12 -7 34 7
22 15 -14 9 -24 79 -12 86 5 4 9 -3 9 -14 0 -23 7 -26 30 -11 13 8 12 10 -2
10 -29 0 -21 15 18 33 35 17 35 17 29 -3 -4 -14 -2 -20 9 -20 8 0 18 5 21 10
3 6 2 10 -4 10 -6 0 -8 7 -4 16 5 13 7 13 14 2 5 -8 9 -9 9 -2 0 7 11 14 25
16 14 3 25 1 25 -5 0 -6 3 -7 8 -3 4 4 7 12 7 17 0 5 4 9 9 8 5 0 12 5 16 11
4 7 13 9 19 6 6 -4 9 -12 6 -17 -4 -5 -2 -9 3 -9 17 0 22 13 9 28 -10 13 -8
14 16 10 15 -3 27 -1 27 3 0 5 6 9 14 9 8 0 17 7 20 16 3 8 10 12 16 9 5 -3
10 0 11 7 0 10 2 10 6 1 2 -7 11 -13 19 -13z m31 -12 c-3 -7 -5 -2 -5 12 0 14
2 19 5 13 2 -7 2 -19 0 -25z m1473 17 c0 -8 -4 -15 -9 -15 -13 0 -22 16 -14
24 11 11 23 6 23 -9z m-1605 -15 c-3 -5 -15 -10 -26 -10 -10 0 -19 5 -19 10 0
6 12 10 26 10 14 0 23 -4 19 -10z m-69 -9 c-8 -12 -46 -21 -46 -11 0 5 8 11
18 13 29 8 33 7 28 -2z m1584 0 c0 -4 -11 -6 -25 -3 -14 2 -25 6 -25 8 0 2 11
4 25 4 14 0 25 -4 25 -9z m95 -22 c5 -6 1 -9 -10 -9 -33 0 -65 12 -59 21 6 10
54 1 69 -12z m-1760 1 c-3 -5 -10 -10 -16 -10 -5 0 -9 5 -9 10 0 6 7 10 16 10
8 0 12 -4 9 -10z m-188 -12 c5 13 23 7 23 -9 0 -16 -43 -6 -47 11 -4 13 -3 13
7 0 9 -11 13 -12 17 -2z m123 1 c0 -5 -3 -9 -7 -10 -68 -7 -111 0 -65 11 39 9
72 8 72 -1z m637 -26 c-3 -10 -5 -4 -5 12 0 17 2 24 5 18 2 -7 2 -21 0 -30z
m1122 -48 c7 -16 10 -16 10 -4 1 14 7 16 38 8 23 -5 40 -4 44 2 8 14 119 -22
119 -38 0 -7 12 -13 27 -13 47 0 11 -21 -40 -23 -26 -1 -47 -6 -47 -11 0 -4
-8 -6 -19 -3 -10 2 -26 0 -36 -6 -15 -8 -100 -9 -285 -3 -19 0 -38 6 -42 11
-5 6 -8 5 -8 -2 0 -7 -4 -13 -8 -13 -5 0 -9 14 -9 30 0 22 5 30 18 30 9 0 24
3 33 6 9 3 16 1 16 -5 0 -6 -9 -11 -19 -11 -11 0 -22 -4 -25 -9 -7 -10 68 -8
102 4 12 4 22 12 22 17 0 5 12 8 27 6 15 -2 28 2 30 10 3 7 -4 12 -17 12 -13
0 -19 4 -14 11 3 6 17 9 30 6 13 -2 24 0 24 4 0 5 -4 9 -10 9 -5 0 -10 5 -10
10 0 16 37 -11 49 -35z m-1122 3 c-3 -8 -6 -5 -6 6 -1 11 2 17 5 13 3 -3 4
-12 1 -19z m816 -11 c19 -29 20 -82 2 -67 -9 8 -15 7 -19 -2 -4 -9 -5 -9 -5 2
2 29 -1 40 -11 40 -5 0 -10 -7 -10 -15 0 -18 -12 -19 -28 -3 -16 16 -15 33 4
52 22 23 49 20 67 -7z m97 3 c0 -5 -2 -10 -4 -10 -3 0 -8 5 -11 10 -3 6 -1 10
4 10 6 0 11 -4 11 -10z m-540 -28 c8 -3 20 -6 25 -7 75 -9 190 -83 152 -98 -7
-3 -5 -6 6 -6 9 -1 18 5 18 12 2 18 19 -71 22 -120 4 -46 36 -116 71 -154 12
-13 31 -40 43 -59 28 -45 72 -85 153 -140 85 -56 130 -99 123 -116 -3 -8 -1
-14 5 -14 14 0 23 -82 10 -97 -5 -7 -6 -18 -2 -24 4 -7 3 -9 -4 -5 -6 3 -16
-7 -23 -23 -8 -17 -18 -27 -26 -24 -7 3 -16 -2 -19 -11 -5 -13 -19 -15 -80
-11 -44 2 -74 0 -74 -5 0 -6 -9 -10 -20 -10 -11 0 -20 5 -20 10 0 6 -4 10 -10
10 -5 0 -9 -5 -7 -11 1 -6 -4 -14 -11 -16 -7 -3 -10 1 -6 10 3 9 -2 16 -15 20
-11 2 -21 15 -23 28 -2 16 -11 25 -25 27 -13 2 -23 8 -23 13 0 5 -5 9 -11 9
-5 0 -8 -4 -5 -9 3 -4 -15 -3 -40 2 -35 8 -47 8 -53 -2 -5 -7 -24 -12 -42 -11
-45 2 -79 -9 -79 -26 0 -9 -10 -13 -27 -12 -16 1 -44 1 -63 -1 -33 -2 -34 -3
-11 -12 18 -7 21 -13 13 -21 -8 -8 -15 -8 -26 1 -21 18 -75 31 -81 20 -4 -5
-15 -4 -28 2 -11 7 -47 12 -79 13 -63 1 -70 6 -35 25 20 10 20 11 -10 8 -27
-3 -33 0 -33 15 0 22 -7 23 -27 3 -8 -8 -19 -13 -24 -10 -4 3 -11 -5 -14 -18
-6 -21 -11 -23 -73 -22 -37 0 -73 4 -79 8 -16 10 -72 1 -136 -21 -46 -16 -50
-16 -62 1 -14 19 -35 23 -35 6 0 -6 -5 -9 -12 -7 -7 3 -14 29 -16 60 -8 128
43 199 201 277 90 45 111 60 178 133 114 125 170 197 200 258 15 30 37 67 50
81 13 14 35 39 48 57 13 18 34 32 50 34 24 3 87 -8 121 -20z m1074 -13 c15 -7
22 -17 19 -26 -9 -23 -62 2 -63 30 0 10 15 9 44 -4z m-1457 -21 c-3 -8 -6 -5
-6 6 -1 11 2 17 5 13 3 -3 4 -12 1 -19z m-359 -20 c-2 -14 2 -22 10 -20 16 3
15 -6 -2 -24 -24 -23 -32 -16 -28 26 2 22 8 40 14 40 5 0 8 -10 6 -22z m-43
-8 c-10 -33 18 -69 49 -63 15 3 26 1 26 -6 0 -5 -6 -8 -14 -5 -7 3 -21 -7 -31
-22 -9 -14 -13 -24 -8 -21 5 3 15 1 23 -5 13 -8 12 -9 -1 -5 -9 3 -22 0 -28
-6 -8 -8 -14 -8 -23 1 -10 10 -10 15 2 23 11 8 12 12 2 16 -6 2 -10 8 -8 12 3
4 1 23 -3 42 -5 21 -4 39 3 46 16 17 18 16 11 -7z m-384 -23 c-8 -8 -11 -7
-11 4 0 20 13 34 18 19 3 -7 -1 -17 -7 -23z m482 13 c-3 -11 0 -20 6 -20 6 0
11 -9 11 -21 0 -18 -2 -19 -15 -5 -15 15 -20 48 -8 59 10 11 11 8 6 -13z m294
-2 c-3 -8 -6 -5 -6 6 -1 11 2 17 5 13 3 -3 4 -12 1 -19z m-712 -18 c3 -6 -1
-7 -9 -4 -18 7 -21 14 -7 14 6 0 13 -4 16 -10z m110 1 c-11 -19 17 -23 36 -5
20 18 23 16 13 -10 -5 -14 -54 -24 -54 -12 0 2 -3 11 -6 20 -3 9 -1 16 6 16 6
0 9 -4 5 -9z m185 -10 c0 -5 3 -16 6 -25 4 -11 1 -16 -10 -16 -9 0 -16 -4 -16
-10 0 -5 6 -9 13 -7 6 1 11 -4 10 -10 -2 -7 4 -31 13 -53 9 -23 14 -44 10 -47
-3 -3 -9 3 -13 15 -7 18 -10 19 -26 7 -18 -13 -18 -14 3 -25 12 -6 19 -14 16
-17 -3 -4 -1 -12 6 -20 8 -10 8 -17 -1 -26 -10 -9 -11 -8 -6 4 7 19 -10 35
-20 19 -3 -5 -12 -10 -18 -10 -7 0 -6 4 3 10 12 7 10 9 -8 7 -12 0 -22 -4 -22
-8 0 -11 37 -39 43 -32 4 3 7 1 7 -6 0 -8 -8 -11 -19 -8 -10 2 -27 -3 -39 -12
-19 -15 -19 -17 -4 -31 14 -13 15 -12 9 2 -4 12 -2 15 9 11 22 -8 10 -28 -15
-26 -13 2 -21 -3 -21 -12 0 -8 8 -15 18 -16 12 0 13 -2 3 -6 -8 -3 -19 0 -25
8 -14 17 -36 23 -36 9 0 -6 5 -10 10 -10 6 0 10 -4 10 -10 0 -14 -23 -8 -37
10 -11 13 -12 13 -13 -2 0 -10 -4 -18 -9 -18 -5 0 -7 9 -4 20 7 27 -6 25 -16
-2 -5 -15 -4 -26 3 -30 7 -5 6 -8 -5 -8 -8 0 -26 10 -38 21 -19 18 -25 19 -32
8 -6 -10 -3 -15 8 -18 9 -1 28 -15 42 -29 14 -14 18 -20 8 -12 -22 16 -34 6
-17 -15 9 -11 9 -15 1 -15 -6 0 -14 14 -18 31 -6 32 -19 28 -25 -9 -3 -22 -3
-22 -34 7 -22 21 -35 26 -42 19 -11 -11 -32 -3 -32 13 0 5 9 9 20 9 11 0 20 5
20 11 0 6 -11 8 -29 4 -21 -4 -30 -2 -35 10 -10 28 6 41 17 14 8 -20 11 -21
14 -6 3 9 9 15 14 12 11 -7 11 -3 3 19 -3 9 -11 13 -17 9 -7 -4 -8 0 -4 11 4
10 10 29 13 42 5 18 10 22 19 14 9 -8 12 3 13 45 0 31 5 62 11 69 6 7 9 21 5
29 -3 9 1 24 10 32 14 15 15 13 9 -17 -4 -18 -7 -43 -8 -55 0 -11 -3 -19 -7
-17 -11 7 -3 -60 10 -84 7 -12 17 -20 23 -17 5 4 9 1 9 -5 0 -6 5 -8 11 -4 8
4 8 9 0 17 -6 6 -11 31 -11 57 l0 45 15 -29 c11 -21 12 -31 4 -36 -8 -6 -8 -9
0 -14 13 -8 25 17 19 36 -3 7 1 28 9 46 7 18 11 38 7 44 -11 18 -13 59 -2 52
5 -3 7 -11 5 -18 -3 -7 1 -23 9 -37 l13 -24 1 28 c0 19 5 27 18 26 10 0 12 -3
4 -6 -6 -2 -10 -9 -6 -14 9 -15 24 -10 24 9 0 14 2 15 10 2 9 -13 14 -7 11 13
0 4 8 7 18 7 11 0 22 8 24 18 3 12 5 11 6 -6 0 -13 -3 -31 -8 -41 -7 -13 -5
-17 8 -18 13 -1 16 5 13 32 -3 23 1 40 12 50 9 9 16 12 16 7 0 -5 -3 -12 -7
-16 -11 -10 -12 -37 -2 -30 5 3 9 12 9 20 0 8 4 14 10 14 5 0 7 7 4 15 -4 8
-1 15 5 15 6 0 11 -4 11 -9z m257 3 c-3 -3 -12 -4 -19 -1 -8 3 -5 6 6 6 11 1
17 -2 13 -5z m-550 -36 c-7 -4 -14 -2 -16 3 -2 7 -6 6 -12 -2 -4 -7 -11 -10
-15 -6 -4 3 -1 13 5 21 10 12 17 13 31 3 14 -8 16 -13 7 -19z m54 25 c-11 -5
-11 -7 0 -15 11 -8 10 -9 -3 -5 -9 3 -19 1 -22 -6 -2 -7 -5 -5 -5 5 -1 16 13
26 34 26 6 0 4 -2 -4 -5z m9 -43 c0 -5 -2 -10 -4 -10 -3 0 -8 5 -11 10 -3 6
-1 10 4 10 6 0 11 -4 11 -10z m391 -15 c5 4 9 1 9 -4 0 -15 -43 -7 -48 9 -3 7
0 10 7 6 6 -4 12 -1 12 6 1 7 3 5 6 -5 2 -9 9 -15 14 -12z m-621 0 c0 -8 -4
-15 -10 -15 -5 0 -7 7 -4 15 4 8 8 15 10 15 2 0 4 -7 4 -15z m560 -5 c11 -11
20 -33 20 -51 0 -44 -24 -32 -28 14 -2 20 -7 37 -13 37 -5 0 -9 5 -9 10 0 15
8 12 30 -10z m-633 -22 c-3 -8 -6 -5 -6 6 -1 11 2 17 5 13 3 -3 4 -12 1 -19z
m313 12 c0 -5 -4 -10 -10 -10 -5 0 -10 5 -10 10 0 6 5 10 10 10 6 0 10 -4 10
-10z m-210 -14 c0 -18 -19 -31 -28 -21 -4 4 -1 10 6 12 6 3 10 9 6 14 -3 5 0
9 5 9 6 0 11 -6 11 -14z m783 -57 c-21 -39 -55 -90 -76 -113 -41 -45 -35 -25
13 39 16 22 39 58 51 80 23 43 39 65 46 65 2 0 -13 -32 -34 -71z m-745 34 c1
-14 -1 -23 -5 -19 -10 10 -14 46 -5 46 4 0 9 -12 10 -27z m1632 7 c0 -12 11
-33 25 -48 14 -15 25 -34 24 -42 -3 -30 1 -40 16 -40 8 0 15 5 15 11 0 8 5 7
15 -1 20 -17 15 -54 -7 -58 -12 -2 -15 2 -12 20 4 21 4 21 -4 3 -5 -11 -7 -26
-5 -32 5 -14 3 -15 -39 -17 -15 -1 -25 1 -22 5 2 4 -8 27 -22 52 -32 58 -38
90 -24 133 13 37 40 46 40 14z m247 -24 c-23 -23 -28 -20 -15 9 7 16 15 22 21
16 6 -6 4 -15 -6 -25z m-1717 8 c0 -8 -4 -12 -10 -9 -5 3 -10 10 -10 16 0 5 5
9 10 9 6 0 10 -7 10 -16z m300 -2 c0 -5 -6 -17 -14 -27 -13 -18 -14 -18 -9 8
5 24 23 39 23 19z m1483 -16 c4 -10 1 -13 -9 -9 -7 3 -14 9 -14 14 0 14 17 10
23 -5z m71 -11 c4 -11 -3 -19 -20 -25 -32 -13 -44 -13 -44 0 0 6 5 10 11 10 5
0 8 4 5 9 -6 9 9 19 30 20 7 1 15 -6 18 -14z m-2014 -5 c0 -5 -4 -10 -10 -10
-5 0 -10 5 -10 10 0 6 5 10 10 10 6 0 10 -4 10 -10z m-113 -32 c-3 -8 -6 -5
-6 6 -1 11 2 17 5 13 3 -3 4 -12 1 -19z m130 -3 c-15 -16 -19 -13 -11 9 3 9
10 13 15 10 5 -3 3 -11 -4 -19z m493 10 c0 -8 -4 -15 -10 -15 -5 0 -10 7 -10
15 0 8 5 15 10 15 6 0 10 -7 10 -15z m1425 5 c-3 -5 -10 -10 -16 -10 -5 0 -9
5 -9 10 0 6 7 10 16 10 8 0 12 -4 9 -10z m-1985 -25 c-7 -9 -15 -13 -19 -10
-3 3 1 10 9 15 21 14 24 12 10 -5z m510 -6 c0 -5 -4 -7 -10 -4 -6 4 -10 -9
-10 -31 0 -46 -8 -41 -14 9 -4 32 -2 37 14 37 11 0 20 -5 20 -11z m-499 -22
c-10 -9 -11 -8 -5 6 3 10 9 15 12 12 3 -3 0 -11 -7 -18z m2079 13 c-8 -5 -19
-10 -25 -10 -5 0 -3 5 5 10 8 5 20 10 25 10 6 0 3 -5 -5 -10z m-2010 -4 c0 -3
-4 -8 -10 -11 -5 -3 -10 -1 -10 4 0 6 5 11 10 11 6 0 10 -2 10 -4z m-19 -33
c13 -16 12 -17 -3 -4 -21 15 -24 2 -5 -18 10 -11 8 -11 -10 0 -11 7 -19 19
-16 26 7 18 18 16 34 -4z m2159 7 c0 -5 -4 -10 -10 -10 -5 0 -10 5 -10 10 0 6
5 10 10 10 6 0 10 -4 10 -10z m-1700 -21 c0 -5 -4 -9 -10 -9 -5 0 -10 7 -10
16 0 8 5 12 10 9 6 -3 10 -10 10 -16z m1563 4 c-7 -18 -33 -17 -33 1 0 8 8 14
19 13 11 0 17 -6 14 -14z m77 13 c0 -2 -3 -11 -6 -20 -9 -23 -24 -20 -24 4 0
11 7 20 15 20 8 0 15 -2 15 -4z m-1623 -28 c-3 -8 -6 -5 -6 6 -1 11 2 17 5 13
3 -3 4 -12 1 -19z m-114 5 c-7 -2 -19 -2 -25 0 -7 3 -2 5 12 5 14 0 19 -2 13
-5z m-407 -39 c-4 -9 -9 -15 -11 -12 -3 3 -3 13 1 22 4 9 9 15 11 12 3 -3 3
-13 -1 -22z m434 -26 c0 -5 -9 -3 -20 4 -11 7 -20 16 -20 20 0 5 9 3 20 -4 11
-7 20 -16 20 -20z m1704 1 c-8 -13 -21 -11 -27 5 -4 10 0 12 14 9 10 -3 16 -9
13 -14z m-2096 -54 c-3 -3 -9 2 -12 12 -6 14 -5 15 5 6 7 -7 10 -15 7 -18z
m276 -6 c-4 -8 1 -9 17 -5 20 6 21 5 6 -4 -18 -11 -37 -6 -37 11 0 5 5 9 11 9
5 0 7 -5 3 -11z m-200 -25 c10 -25 1 -27 -19 -4 -15 17 -16 20 -3 20 9 0 19
-7 22 -16z m-127 -16 c-3 -8 -6 -5 -6 6 -1 11 2 17 5 13 3 -3 4 -12 1 -19z
m83 3 c13 -26 0 -33 -25 -15 -17 13 -18 16 -5 24 19 12 18 13 30 -9z m175 -1
c3 -5 1 -10 -4 -10 -6 0 -11 5 -11 10 0 6 2 10 4 10 3 0 8 -4 11 -10z m45 6
c0 -3 -4 -8 -10 -11 -5 -3 -10 -1 -10 4 0 6 5 11 10 11 6 0 10 -2 10 -4z m-80
-28 c0 -11 -28 -10 -35 1 -3 6 4 9 15 8 11 -1 20 -5 20 -9z m1706 -53 c20 -19
5 -19 -20 0 -11 9 -14 15 -7 15 7 0 19 -7 27 -15z m469 -15 c-3 -5 -12 -10
-18 -10 -7 0 -6 4 3 10 19 12 23 12 15 0z m-2480 -19 c3 -5 0 -13 -6 -17 -7
-4 -9 -3 -5 4 3 6 -2 13 -11 15 -16 4 -16 5 -1 6 9 0 19 -3 23 -8z m2220 -1
c4 -6 -6 -7 -27 -3 -44 8 -48 13 -10 13 17 0 34 -4 37 -10z m-2156 -26 c14
-12 -19 -1 -35 12 -18 14 -18 14 6 3 14 -6 27 -13 29 -15z m179 -11 c-10 -2
-26 -2 -35 0 -10 3 -2 5 17 5 19 0 27 -2 18 -5z m-98 -23 c0 -5 -12 -10 -27
-9 l-28 1 25 8 c14 4 26 8 28 9 1 1 2 -3 2 -9z m1155 -180 c3 -5 -1 -10 -10
-10 -9 0 -13 5 -10 10 3 6 8 10 10 10 2 0 7 -4 10 -10z m-418 -16 c-3 -3 -12
-4 -19 -1 -8 3 -5 6 6 6 11 1 17 -2 13 -5z m1618 -194 c3 -5 1 -10 -4 -10 -6
0 -11 5 -11 10 0 6 2 10 4 10 3 0 8 -4 11 -10z m-1544 -32 c8 -15 8 -23 2 -25
-7 -3 -8 -18 -2 -44 5 -22 6 -45 3 -51 -4 -6 -1 -14 6 -18 7 -4 10 -14 7 -21
-3 -9 -11 0 -21 23 -9 20 -21 40 -27 44 -12 7 -31 -15 -23 -27 3 -6 -6 -6 -36
1 -3 0 3 5 12 10 13 8 15 16 7 43 -11 39 -12 67 -1 67 4 0 8 -9 9 -20 2 -21
42 -84 50 -77 7 8 -9 57 -17 52 -5 -3 -11 -1 -15 5 -3 5 -1 10 5 10 6 0 8 10
4 25 -8 32 20 35 37 3z m629 -64 c0 -8 -4 -12 -10 -9 -5 3 -10 13 -10 21 0 8
5 12 10 9 6 -3 10 -13 10 -21z m-59 -17 c-8 -8 -11 -7 -11 4 0 20 13 34 18 19
3 -7 -1 -17 -7 -23z m95 -34 c-3 -8 -6 -20 -7 -26 -1 -14 -17 22 -18 40 -1 7
6 10 15 6 8 -3 13 -12 10 -20z m-106 -23 c0 -5 -2 -10 -4 -10 -3 0 -8 5 -11
10 -3 6 -1 10 4 10 6 0 11 -4 11 -10z m37 -15 c0 -8 -4 -12 -9 -9 -4 3 -8 9
-8 15 0 5 4 9 8 9 5 0 9 -7 9 -15z m83 -15 c0 -5 -4 -10 -10 -10 -5 0 -10 5
-10 10 0 6 5 10 10 10 6 0 10 -4 10 -10z m60 0 c0 -5 7 -10 15 -10 9 0 12 -6
8 -15 -5 -14 -8 -14 -24 1 -21 19 -25 34 -9 34 6 0 10 -4 10 -10z"/>
<path d="M716 2045 c10 -8 24 -14 29 -14 6 0 1 6 -9 14 -11 8 -24 15 -30 15
-5 0 -1 -7 10 -15z"/>
<path d="M160 2030 c0 -5 5 -10 11 -10 5 0 7 5 4 10 -3 6 -8 10 -11 10 -2 0
-4 -4 -4 -10z"/>
<path d="M145 1990 c3 -5 11 -10 16 -10 6 0 7 5 4 10 -3 6 -11 10 -16 10 -6 0
-7 -4 -4 -10z"/>
<path d="M106 1975 c4 -8 10 -15 15 -15 5 0 9 7 9 15 0 8 -7 15 -15 15 -9 0
-12 -6 -9 -15z"/>
<path d="M318 1983 c6 -2 18 -2 25 0 6 3 1 5 -13 5 -14 0 -19 -2 -12 -5z"/>
<path d="M118 1933 c6 -2 18 -2 25 0 6 3 1 5 -13 5 -14 0 -19 -2 -12 -5z"/>
<path d="M1309 1981 c12 -8 51 -4 51 5 0 2 -15 4 -32 4 -23 0 -29 -3 -19 -9z"/>
<path d="M1533 1649 c14 -8 16 -14 6 -25 -10 -12 -9 -13 5 -8 10 4 16 1 16 -7
0 -7 2 -10 5 -7 11 11 -15 58 -32 58 -17 -1 -17 -1 0 -11z"/>
<path d="M467 1443 c-10 -9 -9 -23 1 -23 5 0 9 7 9 15 0 17 -1 18 -10 8z"/>
<path d="M386 1419 c-11 -10 -16 -25 -12 -34 6 -17 26 -12 26 6 0 6 -4 7 -10
4 -5 -3 -10 -1 -10 4 0 10 14 15 33 12 4 0 7 3 7 8 0 18 -15 18 -34 0z"/>
<path d="M1595 620 c3 -5 8 -10 11 -10 2 0 4 5 4 10 0 6 -5 10 -11 10 -5 0 -7
-4 -4 -10z"/>
<path d="M532 1196 c7 -8 15 -12 17 -11 5 6 -10 25 -20 25 -5 0 -4 -6 3 -14z"/>
<path d="M500 1193 c0 -4 5 -15 10 -23 8 -13 10 -13 10 2 0 9 -4 20 -10 23 -5
3 -10 3 -10 -2z"/>
<path d="M410 1182 c0 -5 7 -9 15 -9 8 0 12 4 9 9 -3 4 -9 8 -15 8 -5 0 -9 -4
-9 -8z"/>
<path d="M390 1156 c0 -9 5 -16 10 -16 6 0 10 4 10 9 0 6 -4 13 -10 16 -5 3
-10 -1 -10 -9z"/>
<path d="M540 1159 c0 -9 11 -21 25 -27 15 -7 25 -8 25 -2 0 6 -7 10 -15 10
-7 0 -19 8 -24 18 -9 14 -10 15 -11 1z"/>
<path d="M485 1129 c-4 -6 -5 -12 -2 -15 2 -3 7 2 10 11 7 17 1 20 -8 4z"/>
<path d="M526 1081 c-4 -5 -2 -12 3 -15 5 -4 12 -2 15 3 4 5 2 12 -3 15 -5 4
-12 2 -15 -3z"/>
<path d="M465 1070 c-3 -5 -1 -10 4 -10 6 0 11 5 11 10 0 6 -2 10 -4 10 -3 0
-8 -4 -11 -10z"/>
<path d="M250 1063 c1 -18 18 -35 24 -24 4 6 4 16 1 21 -7 12 -25 13 -25 3z"/>
<path d="M365 1050 c-3 -5 -13 -7 -23 -4 -10 4 -13 3 -6 -3 6 -4 13 -16 17
-25 3 -10 11 -18 17 -18 7 0 8 6 1 19 -8 14 -7 20 5 25 8 3 13 2 10 -3 -3 -4
2 -17 10 -27 9 -10 13 -13 9 -6 -4 7 0 12 9 12 9 0 16 5 16 11 0 6 -7 9 -15 5
-9 -3 -15 0 -15 9 0 17 -25 20 -35 5z"/>
<path d="M305 1041 c-3 -5 -1 -12 5 -16 5 -3 10 1 10 9 0 18 -6 21 -15 7z"/>
<path d="M483 1035 c-16 -18 -16 -25 0 -25 7 0 13 9 14 20 2 23 2 24 -14 5z"/>
<path d="M440 1020 c0 -5 5 -10 11 -10 5 0 7 5 4 10 -3 6 -8 10 -11 10 -2 0
-4 -4 -4 -10z"/>
<path d="M315 998 c-4 -10 -14 -18 -22 -18 -10 0 -13 -6 -9 -16 3 -9 6 -20 6
-25 0 -5 7 -9 16 -9 11 0 14 6 9 21 -4 13 -2 25 5 29 7 4 10 14 7 21 -3 11 -6
10 -12 -3z"/>
<path d="M375 980 c3 -5 11 -10 16 -10 6 0 7 5 4 10 -3 6 -11 10 -16 10 -6 0
-7 -4 -4 -10z"/>
<path d="M1847 1039 c7 -7 15 -10 18 -7 3 3 -2 9 -12 12 -14 6 -15 5 -6 -5z"/>
<path d="M981 214 c0 -11 3 -14 6 -6 3 7 2 16 -1 19 -3 4 -6 -2 -5 -13z"/>
<path d="M2152 2713 c-1 -39 8 -32 22 15 5 15 3 22 -7 22 -9 0 -14 -13 -15
-37z"/>
<path d="M5 2720 c3 -5 11 -10 16 -10 6 0 7 5 4 10 -3 6 -11 10 -16 10 -6 0
-7 -4 -4 -10z"/>
<path d="M2016 2711 c-4 -7 -5 -15 -2 -18 9 -9 19 4 14 18 -4 11 -6 11 -12 0z"/>
<path d="M2316 2695 c-10 -8 -16 -18 -15 -24 3 -6 12 -4 23 4 10 8 16 18 15
24 -3 6 -12 4 -23 -4z"/>
<path d="M1983 2675 c4 -9 2 -25 -5 -34 -12 -14 -11 -14 5 -2 20 16 22 37 5
47 -8 5 -9 2 -5 -11z"/>
<path d="M2340 2656 c0 -17 14 -29 23 -20 8 8 -3 34 -14 34 -5 0 -9 -6 -9 -14z"/>
<path d="M11 2651 c-15 -10 -8 -41 9 -41 15 0 12 20 -2 20 -7 1 -2 7 12 15 15
8 19 14 10 14 -8 1 -21 -3 -29 -8z"/>
<path d="M2035 2600 c-3 -5 -1 -10 4 -10 6 0 11 5 11 10 0 6 -2 10 -4 10 -3 0
-8 -4 -11 -10z"/>
<path d="M340 2569 c0 -6 -9 -8 -20 -4 -11 4 -20 2 -20 -4 0 -13 57 -15 64 -2
3 5 -1 11 -9 15 -8 3 -15 1 -15 -5z"/>
<path d="M2530 2572 c0 -5 7 -13 16 -16 10 -4 14 -1 12 6 -5 15 -28 23 -28 10z"/>
<path d="M2495 2530 c-3 -5 -14 -10 -24 -10 -17 0 -37 -38 -25 -49 3 -3 7 5
11 18 3 12 11 20 18 18 6 -3 17 4 23 14 7 10 10 19 8 19 -3 0 -8 -4 -11 -10z"/>
<path d="M440 2516 c0 -2 7 -7 16 -10 8 -3 12 -2 9 4 -6 10 -25 14 -25 6z"/>
<path d="M712 2460 c7 -10 14 -18 15 -16 6 6 -9 36 -18 36 -5 0 -4 -9 3 -20z"/>
<path d="M1180 2440 c0 -5 6 -10 14 -10 8 0 18 5 21 10 3 6 -3 10 -14 10 -12
0 -21 -4 -21 -10z"/>
<path d="M1327 2419 c7 -7 15 -10 18 -7 3 3 -2 9 -12 12 -14 6 -15 5 -6 -5z"/>
<path d="M1915 2400 c-3 -5 -1 -10 4 -10 6 0 11 5 11 10 0 6 -2 10 -4 10 -3 0
-8 -4 -11 -10z"/>
<path d="M2146 2385 c-11 -8 -17 -17 -14 -20 2 -3 13 4 23 15 21 23 18 25 -9
5z"/>
<path d="M913 2371 c0 -11 5 -17 9 -15 11 7 10 34 -1 34 -6 0 -9 -9 -8 -19z"/>
<path d="M1151 2374 c0 -11 3 -14 6 -6 3 7 2 16 -1 19 -3 4 -6 -2 -5 -13z"/>
<path d="M1500 2379 c0 -5 5 -7 10 -4 6 3 10 8 10 11 0 2 -4 4 -10 4 -5 0 -10
-5 -10 -11z"/>
<path d="M1889 2343 c-8 -16 -18 -31 -24 -35 -6 -5 -5 -12 5 -17 15 -11 33 6
23 21 -2 5 3 20 11 33 9 14 13 25 8 25 -5 0 -15 -12 -23 -27z"/>
<path d="M1100 2350 c-8 -5 -11 -12 -7 -16 4 -4 15 0 24 9 18 18 8 23 -17 7z"/>
<path d="M1592 2348 c-15 -15 -16 -38 -2 -38 6 0 10 5 10 11 0 6 6 9 14 6 8
-3 20 2 28 11 10 12 10 14 0 8 -7 -4 -19 -3 -26 3 -9 7 -16 7 -24 -1z"/>
<path d="M1186 2325 c4 -8 10 -15 15 -15 4 0 6 7 3 15 -4 8 -10 15 -15 15 -4
0 -6 -7 -3 -15z"/>
<path d="M1443 2317 c-3 -4 -3 -11 0 -14 7 -7 47 6 47 16 0 10 -40 9 -47 -2z"/>
<path d="M1258 2303 c6 -2 10 -9 6 -14 -3 -5 2 -9 10 -9 9 0 16 -5 16 -11 0
-5 5 -7 11 -3 8 5 8 9 -1 14 -7 4 -9 13 -6 19 5 7 -3 11 -21 10 -15 0 -22 -3
-15 -6z"/>
<path d="M1218 2273 c7 -3 16 -2 19 1 4 3 -2 6 -13 5 -11 0 -14 -3 -6 -6z"/>
<path d="M1355 2210 c-3 -5 1 -10 10 -10 9 0 13 5 10 10 -3 6 -8 10 -10 10 -2
0 -7 -4 -10 -10z"/>
<path d="M2614 2075 c-10 -8 -14 -14 -9 -14 6 0 19 6 29 14 11 8 15 15 10 15
-6 0 -19 -7 -30 -15z"/>
<path d="M2348 1943 c7 -3 16 -2 19 1 4 3 -2 6 -13 5 -11 0 -14 -3 -6 -6z"/>
<path d="M2505 1940 c3 -5 8 -10 11 -10 2 0 4 5 4 10 0 6 -5 10 -11 10 -5 0
-7 -4 -4 -10z"/>
<path d="M910 1366 c0 -8 4 -17 9 -20 5 -4 7 3 4 14 -6 23 -13 26 -13 6z"/>
<path d="M2690 780 c0 -5 5 -10 11 -10 5 0 7 5 4 10 -3 6 -8 10 -11 10 -2 0
-4 -4 -4 -10z"/>
<path d="M60 439 c0 -5 9 -9 19 -9 11 0 22 4 25 9 3 5 -6 9 -19 9 -14 0 -25
-4 -25 -9z"/>
<path d="M150 440 c0 -5 7 -10 15 -10 8 0 15 5 15 10 0 6 -7 10 -15 10 -8 0
-15 -4 -15 -10z"/>
<path d="M20 420 c0 -5 5 -10 10 -10 6 0 10 5 10 10 0 6 -4 10 -10 10 -5 0
-10 -4 -10 -10z"/>
<path d="M65 400 c-21 -9 -21 -9 11 -15 13 -3 21 1 21 10 0 17 -4 17 -32 5z"/>
<path d="M155 400 c-19 -8 -19 -9 2 -9 12 -1 25 4 28 9 7 12 -2 12 -30 0z"/>
<path d="M0 365 c0 -32 17 -65 34 -65 11 0 6 28 -6 34 -7 3 -1 4 13 1 18 -3
35 2 50 15 l24 19 -22 -6 c-13 -3 -23 -10 -23 -16 0 -6 -7 -1 -16 11 -8 12
-24 27 -35 32 -17 10 -19 7 -19 -25z m30 -5 c0 -5 -2 -10 -4 -10 -3 0 -8 5
-11 10 -3 6 -1 10 4 10 6 0 11 -4 11 -10z"/>
<path d="M138 352 c9 -11 21 -17 25 -14 5 2 0 10 -10 18 -26 20 -36 17 -15 -4z"/>
<path d="M90 332 c0 -5 14 -12 30 -14 33 -5 28 6 -7 17 -13 3 -23 2 -23 -3z"/>
<path d="M0 269 c0 -11 7 -19 18 -20 14 0 14 -2 2 -7 -11 -5 -16 -26 -17 -77
-1 -38 0 -64 3 -57 10 21 22 13 26 -18 3 -16 1 -30 -4 -30 -4 0 -8 5 -8 10 0
6 -4 10 -10 10 -5 0 -10 -18 -10 -40 0 -36 3 -40 25 -40 16 0 25 6 25 15 0 8
-5 15 -11 15 -7 0 0 11 15 25 28 26 46 32 46 15 0 -5 -6 -10 -14 -10 -8 0 -16
-7 -20 -15 -3 -8 0 -15 6 -15 7 0 6 -5 -2 -15 -11 -13 -8 -15 18 -15 36 0 57
21 40 38 -9 9 -8 12 5 12 9 0 20 -8 26 -17 12 -23 21 -13 24 23 2 25 -1 29
-23 27 -14 -1 -19 1 -13 3 28 12 11 22 -29 18 -24 -2 -35 -1 -25 2 31 10 18
24 -25 26 l-43 1 38 4 c29 3 37 8 35 21 -2 13 3 16 22 15 14 -1 19 0 13 3 -7
3 -13 11 -13 18 0 8 -13 11 -37 8 -36 -3 -37 -2 -19 12 11 9 29 16 40 16 17 0
18 2 6 10 -8 5 -24 7 -36 4 -14 -4 -23 0 -27 11 -9 21 22 33 35 14 8 -12 9
-11 5 1 -2 10 -17 15 -45 16 -35 1 -42 -2 -42 -17z m47 -105 c-3 -3 -12 -4
-19 -1 -8 3 -5 6 6 6 11 1 17 -2 13 -5z"/>
<path d="M160 281 c0 -5 9 -7 20 -4 11 3 20 7 20 9 0 2 -9 4 -20 4 -11 0 -20
-4 -20 -9z"/>
<path d="M1117 236 c-9 -24 -9 -28 3 -21 6 3 10 0 10 -7 0 -8 5 -6 11 5 6 10
8 21 5 24 -3 4 -6 0 -7 -8 0 -8 -3 -6 -8 5 -7 18 -8 18 -14 2z"/>
<path d="M1163 203 c-4 -10 -10 -20 -14 -23 -7 -5 -12 -48 -10 -81 1 -11 14
-19 36 -23 19 -4 35 -12 35 -18 0 -9 4 -8 12 0 10 10 10 15 -2 22 -13 9 -13
10 0 10 12 0 13 2 1 9 -7 5 -10 14 -6 21 6 9 9 9 16 -1 7 -11 9 -11 9 -1 0 7
-7 15 -16 19 -8 3 -13 12 -9 21 5 12 3 13 -10 2 -12 -10 -13 -15 -4 -20 8 -6
8 -13 0 -26 -10 -18 -10 -18 -11 -1 0 10 -4 16 -9 13 -16 -10 0 31 21 54 11
12 18 23 15 26 -2 3 -17 -9 -31 -27 -15 -17 -29 -29 -32 -26 -6 6 16 48 31 59
6 5 5 8 -3 8 -7 0 -16 -8 -19 -17z"/>
<path d="M1466 195 c28 -24 28 -24 4 -18 -14 3 -28 11 -32 17 -5 7 -8 4 -8 -7
0 -19 6 -22 57 -31 28 -5 32 -2 41 24 10 28 7 40 -11 40 -5 0 -7 -7 -3 -15 3
-9 0 -15 -8 -15 -7 0 -19 7 -26 15 -7 8 -19 15 -28 15 -10 0 -5 -8 14 -25z"/>
<path d="M1240 171 c0 -17 4 -31 10 -31 5 0 6 7 3 17 -4 11 -3 14 5 9 17 -10
15 3 -3 20 -13 14 -15 12 -15 -15z"/>
<path d="M2457 163 c-4 -3 -7 -13 -7 -22 1 -13 3 -13 11 2 11 19 8 33 -4 20z"/>
<path d="M125 150 c-3 -5 1 -10 10 -10 9 0 13 5 10 10 -3 6 -8 10 -10 10 -2 0
-7 -4 -10 -10z"/>
<path d="M2385 140 c-3 -5 -1 -10 4 -10 6 0 11 5 11 10 0 6 -2 10 -4 10 -3 0
-8 -4 -11 -10z"/>
<path d="M1530 126 c0 -9 5 -16 10 -16 6 0 10 4 10 9 0 6 -4 13 -10 16 -5 3
-10 -1 -10 -9z"/>
<path d="M1480 117 c0 -10 8 -17 18 -17 9 0 13 4 7 8 -5 4 -13 11 -17 16 -5 5
-8 2 -8 -7z"/>
<path d="M2087 123 c-4 -3 -7 -11 -7 -17 0 -6 5 -5 12 2 6 6 9 14 7 17 -3 3
-9 2 -12 -2z"/>
<path d="M1251 93 c-1 -6 -4 -20 -7 -30 -5 -17 -5 -17 6 0 6 10 9 23 6 30 -3
9 -5 9 -5 0z"/>
<path d="M790 40 c0 -5 7 -10 15 -10 8 0 15 -7 15 -16 0 -18 22 -14 28 6 3 7
0 10 -7 6 -6 -4 -11 -1 -11 8 0 9 -9 16 -20 16 -11 0 -20 -4 -20 -10z"/>
<path d="M645 19 c-11 -17 1 -21 15 -4 8 9 8 15 2 15 -6 0 -14 -5 -17 -11z"/>
</g>
</svg>
